<svg xmlns="http://www.w3.org/2000/svg" width="60" height="58.5" viewBox="0 0 60 58.5"><path d="M49.375,58.5H10.625A10.616,10.616,0,0,1,0,47.875V10.625A10.616,10.616,0,0,1,10.625,0h38.75A10.616,10.616,0,0,1,60,10.625v37.25A10.616,10.616,0,0,1,49.375,58.5Z" fill="#ff26be"/><path d="M55.925,63.5H19.075A9.09,9.09,0,0,1,10,54.425V19.075A9.09,9.09,0,0,1,19.075,10H55.9a9.074,9.074,0,0,1,9.075,9.075V54.4A9.058,9.058,0,0,1,55.925,63.5Z" transform="translate(-7.5 -7.5)" fill="#2e001f"/><g transform="translate(11.202 14.225)"><path d="M57.33,70.05l7,13.45c.125.2.05.4-.15.4H59.83a.491.491,0,0,1-.525-.325c-1.6-3.3-3.225-6.6-4.9-10.15h-.05c-1.5,3.35-3.15,6.875-4.75,10.175a.48.48,0,0,1-.45.275H45.03c-.25,0-.275-.2-.15-.35l6.85-13.05L45.1,57.275a.2.2,0,0,1,.15-.35h4.3A.394.394,0,0,1,50,57.2c1.575,3.3,3.175,6.7,4.675,10.025h.05c1.45-3.3,3.05-6.725,4.6-10,.125-.2.2-.325.45-.325H63.8c.2,0,.275.15.15.35Z" transform="translate(-44.806 -56.9)" fill="#ffd9f2"/><path d="M127.8,74.2c0-5.825,3.875-10.375,10.025-10.375a11.087,11.087,0,0,1,1.3.05V57.25a.251.251,0,0,1,.25-.25h3.95c.2,0,.25.075.25.2V80.15a17.807,17.807,0,0,0,.125,2.45c0,.15-.05.2-.2.275a14.892,14.892,0,0,1-6.4,1.45C131.675,84.35,127.8,81,127.8,74.2Zm11.325-6.4a3.781,3.781,0,0,0-1.45-.25c-3.15,0-5.35,2.425-5.35,6.45,0,4.6,2.25,6.45,5.075,6.45a4.717,4.717,0,0,0,1.725-.275Z" transform="translate(-107.052 -56.975)" fill="#ffd9f2"/></g></svg>