<svg xmlns="http://www.w3.org/2000/svg" width="90" height="90" viewBox="0 0 90 90"><g transform="translate(-9 -894)"><g transform="translate(14 899)" fill="#2e001f" stroke="#ff26be" stroke-linecap="round" stroke-linejoin="round" stroke-width="5" stroke-dasharray="12 8"><rect width="80" height="80" rx="6" stroke="none"/><rect x="-2.5" y="-2.5" width="85" height="85" rx="8.5" fill="none"/></g><path d="M12.572-14.986h.138L18.7-28.073h5.506L15.475-11.461l9.1,16.934h-5.6L12.78-7.936h-.138L6.467,5.473H.938L9.877-11.461,1.168-28.073h5.46ZM26.649-6.692a18.676,18.676,0,0,1,2.154-9.6,6.722,6.722,0,0,1,6.071-3.629A6.179,6.179,0,0,1,38-19.133a7.091,7.091,0,0,1,2.362,2.258V-30.469h4.654V5.473H40.934l-.346-2.857A7.064,7.064,0,0,1,38.158,5.1a6.366,6.366,0,0,1-3.306.852A6.82,6.82,0,0,1,28.8,2.639a16.049,16.049,0,0,1-2.154-8.847Zm4.677.484A14.36,14.36,0,0,0,32.455.035a3.741,3.741,0,0,0,3.571,2.3,4.107,4.107,0,0,0,2.592-.829A5.913,5.913,0,0,0,40.358-.817V-12.936a6.47,6.47,0,0,0-1.739-2.442,3.835,3.835,0,0,0-2.546-.9,3.792,3.792,0,0,0-3.594,2.65,17.592,17.592,0,0,0-1.152,6.935Z" transform="translate(30.707 951.696)" fill="#ffd9f2"/></g></svg>