<svg xmlns="http://www.w3.org/2000/svg" xmlns:xlink="http://www.w3.org/1999/xlink" width="90" height="90" viewBox="0 0 90 90"><defs><clipPath id="a"><rect width="50" height="50" transform="translate(252.845 765.845)" fill="none"/></clipPath></defs><g transform="translate(-119 -894)"><g transform="translate(124 899)" fill="#18957e" stroke="#3ddc84" stroke-linecap="round" stroke-linejoin="round" stroke-width="5" stroke-dasharray="12 8"><rect width="80" height="80" rx="6" stroke="none"/><rect x="-2.5" y="-2.5" width="85" height="85" rx="8.5" fill="none"/></g><g transform="translate(-113.845 148.155)" clip-path="url(#a)"><g transform="translate(253.996 770.084)"><path d="M36.513,334.264a2.222,2.222,0,1,0,2.066,2.216,2.074,2.074,0,0,0-2.066-2.216m-.277-1.374a2.775,2.775,0,0,1,2.216,1.062v-.923h1.524v6.915H38.8a.347.347,0,0,1-.346-.346v-.577a2.757,2.757,0,0,1-2.216,1.062,3.606,3.606,0,0,1,0-7.192m5.472.139h1.524v.935a2.37,2.37,0,0,1,2.1-1.074,2.6,2.6,0,0,1,2.644,2.886v4.167H46.811a.347.347,0,0,1-.346-.346V336.03c0-1.1-.554-1.755-1.443-1.755-1,0-1.789.785-1.789,2.263v3.405H42.066a.347.347,0,0,1-.346-.346Zm11.071,1.235a2.222,2.222,0,1,0,2.066,2.216,2.074,2.074,0,0,0-2.066-2.216M52.5,332.89a2.775,2.775,0,0,1,2.216,1.062v-4.387h1.524v10.378H55.076a.347.347,0,0,1-.346-.346v-.577a2.757,2.757,0,0,1-2.216,1.062,3.607,3.607,0,0,1-.012-7.192m5.472.139H59.5v1.235a1.958,1.958,0,0,1,1.824-1.3,2.541,2.541,0,0,1,.589.058v1.558a2.45,2.45,0,0,0-.762-.127c-.866,0-1.662.739-1.662,2.113v3.371H58.32a.347.347,0,0,1-.346-.346Zm8.035,5.633a2.184,2.184,0,1,0-2.089-2.182,2.08,2.08,0,0,0,2.089,2.182m0,1.42a3.573,3.573,0,1,1,2.566-1.034,3.6,3.6,0,0,1-2.566,1.034m4.86-7.053h1.524v6.915H71.226a.347.347,0,0,1-.346-.346Zm.762-1.512a1.037,1.037,0,0,1-1.027-1.027,1.022,1.022,0,1,1,1.027,1.027m5.622,2.748a2.222,2.222,0,1,0,2.066,2.216,2.074,2.074,0,0,0-2.066-2.216m-.277-1.374a2.775,2.775,0,0,1,2.216,1.062v-4.387h1.524v10.378H79.549a.347.347,0,0,1-.346-.346v-.577a2.757,2.757,0,0,1-2.216,1.062,3.607,3.607,0,0,1-.012-7.192" transform="translate(-32.9 -298.227)" fill="#fff"/><path d="M68.525,66.849l3.983-6.892a.828.828,0,1,0-1.431-.831L67.047,66.1a24.944,24.944,0,0,0-20.456,0l-4.029-6.973a.828.828,0,1,0-1.432.831l3.983,6.892A23.429,23.429,0,0,0,32.9,85.643H80.692A23.512,23.512,0,0,0,68.525,66.849ZM45.806,78.832a1.986,1.986,0,1,1,1.986-1.986A1.986,1.986,0,0,1,45.806,78.832Zm22,0a1.986,1.986,0,1,1,1.986-1.986A1.986,1.986,0,0,1,67.809,78.832Z" transform="translate(-32.9 -58.714)" fill="#3ddc84"/></g></g></g></svg>