<svg xmlns="http://www.w3.org/2000/svg" xmlns:xlink="http://www.w3.org/1999/xlink" width="90" height="90" viewBox="0 0 90 90"><defs><clipPath id="a"><rect width="90" height="90" transform="translate(252 765)" fill="none"/></clipPath></defs><g transform="translate(-252 -765)" clip-path="url(#a)"><g transform="translate(222.959 715.472)"><path d="M39.133,337.729a3.833,3.833,0,1,0,3.565,3.823,3.577,3.577,0,0,0-3.565-3.823m-.478-2.37a4.786,4.786,0,0,1,3.823,1.832V335.6h2.629v11.928H43.076a.6.6,0,0,1-.6-.6v-1a4.756,4.756,0,0,1-3.823,1.832,6.221,6.221,0,0,1,0-12.406m9.439.239h2.629v1.613a4.089,4.089,0,0,1,3.624-1.852c2.768,0,4.56,1.952,4.56,4.978v7.189H56.9a.6.6,0,0,1-.6-.6v-6.153c0-1.892-.956-3.027-2.489-3.027-1.732,0-3.087,1.354-3.087,3.9v5.875H48.712a.6.6,0,0,1-.6-.6Zm19.1,2.131a3.833,3.833,0,1,0,3.565,3.823,3.577,3.577,0,0,0-3.565-3.823m-.478-2.37a4.786,4.786,0,0,1,3.823,1.832v-7.567h2.629v17.9H71.154a.6.6,0,0,1-.6-.6v-1a4.756,4.756,0,0,1-3.823,1.832,6.221,6.221,0,0,1-.02-12.406m9.439.239h2.629v2.131a3.377,3.377,0,0,1,3.146-2.25,4.392,4.392,0,0,1,1.016.1v2.688a4.23,4.23,0,0,0-1.314-.219c-1.494,0-2.868,1.274-2.868,3.644v5.815H76.75a.6.6,0,0,1-.6-.6Zm13.86,9.718a3.767,3.767,0,1,0-3.6-3.764,3.589,3.589,0,0,0,3.6,3.764m0,2.449a6.163,6.163,0,1,1,4.427-1.784,6.2,6.2,0,0,1-4.427,1.784M98.4,335.6h2.629v11.928H99.014a.6.6,0,0,1-.6-.6Zm1.314-2.609a1.789,1.789,0,0,1-1.772-1.772,1.762,1.762,0,1,1,1.772,1.772m9.7,4.74a3.833,3.833,0,1,0,3.565,3.823,3.577,3.577,0,0,0-3.565-3.823m-.478-2.37a4.786,4.786,0,0,1,3.823,1.832v-7.567h2.629v17.9h-2.011a.6.6,0,0,1-.6-.6v-1a4.756,4.756,0,0,1-3.823,1.832,6.221,6.221,0,0,1-.02-12.406" transform="translate(0 -216.85)" fill="#fff"/><path d="M94.354,72.747l6.87-11.889a1.428,1.428,0,1,0-2.469-1.434L91.8,71.453a43.029,43.029,0,0,0-35.287,0l-6.95-12.028A1.428,1.428,0,1,0,47.1,60.859l6.87,11.888A40.415,40.415,0,0,0,32.9,105.167h82.443a40.559,40.559,0,0,0-20.989-32.42Zm-39.19,20.67a3.425,3.425,0,1,1,3.425-3.425A3.425,3.425,0,0,1,55.164,93.418Zm37.956,0a3.425,3.425,0,1,1,3.425-3.425A3.425,3.425,0,0,1,93.119,93.418Z" transform="translate(0)" fill="#3ddc84"/></g></g></svg>