<svg xmlns="http://www.w3.org/2000/svg" width="80" height="80" viewBox="0 0 80 80"><g transform="translate(-5043 -1500)"><rect width="80" height="80" transform="translate(5043 1500)" fill="#fff" opacity="0"/><g transform="translate(5049.06 1521.274)"><path d="M83.465,70.261l5.653-9.782a1.175,1.175,0,1,0-2.032-1.18l-5.718,9.9a35.4,35.4,0,0,0-29.035,0l-5.718-9.9a1.175,1.175,0,1,0-2.032,1.18l5.653,9.782A33.254,33.254,0,0,0,32.9,96.936h67.835A33.372,33.372,0,0,0,83.465,70.261ZM51.219,87.268a2.818,2.818,0,1,1,2.818-2.818A2.818,2.818,0,0,1,51.219,87.268Zm31.23,0a2.818,2.818,0,1,1,2.818-2.818A2.818,2.818,0,0,1,82.449,87.268Z" transform="translate(-32.9 -58.714)" fill="#3ddc84"/></g></g></svg>