<svg xmlns="http://www.w3.org/2000/svg" xmlns:xlink="http://www.w3.org/1999/xlink" width="90" height="90" viewBox="0 0 90 90"><defs><clipPath id="a"><rect width="54" height="54" transform="translate(253.132 766.132)" fill="none"/></clipPath></defs><g transform="translate(-119 -894)"><g transform="translate(124 899)" fill="#18957e" stroke="#3ddc84" stroke-linecap="round" stroke-linejoin="round" stroke-width="5" stroke-dasharray="12 8"><rect width="80" height="80" rx="6" stroke="none"/><rect x="-2.5" y="-2.5" width="85" height="85" rx="8.5" fill="none"/></g><g transform="translate(-116.132 145.868)" clip-path="url(#a)"><g transform="translate(254.101 770.472)"><path d="M36.844,334.7a2.425,2.425,0,1,0,2.255,2.419,2.264,2.264,0,0,0-2.255-2.419m-.3-1.5a3.029,3.029,0,0,1,2.419,1.159v-1.008h1.663V340.9H39.339a.379.379,0,0,1-.378-.378v-.63a3.009,3.009,0,0,1-2.419,1.159,3.936,3.936,0,0,1,0-7.85m5.972.151h1.663v1.021A2.587,2.587,0,0,1,46.47,333.2a2.835,2.835,0,0,1,2.885,3.15V340.9H48.083a.379.379,0,0,1-.378-.378v-3.893c0-1.2-.6-1.915-1.575-1.915-1.1,0-1.953.857-1.953,2.47V340.9H42.9a.379.379,0,0,1-.378-.378ZM54.6,334.7a2.425,2.425,0,1,0,2.255,2.419A2.264,2.264,0,0,0,54.6,334.7m-.3-1.5a3.029,3.029,0,0,1,2.419,1.159v-4.788h1.663V340.9H57.1a.379.379,0,0,1-.378-.378v-.63a3.009,3.009,0,0,1-2.419,1.159,3.937,3.937,0,0,1-.013-7.85m5.972.151h1.663V334.7a2.137,2.137,0,0,1,1.991-1.424,2.775,2.775,0,0,1,.643.063v1.7a2.674,2.674,0,0,0-.832-.139c-.945,0-1.814.806-1.814,2.306v3.679H60.645a.379.379,0,0,1-.378-.378Zm8.77,6.149a2.384,2.384,0,1,0-2.281-2.381,2.271,2.271,0,0,0,2.281,2.381m0,1.55a3.9,3.9,0,1,1,2.8-1.129,3.925,3.925,0,0,1-2.8,1.129m5.3-7.7h1.663V340.9H74.732a.379.379,0,0,1-.378-.378Zm.832-1.651a1.132,1.132,0,0,1-1.121-1.121,1.115,1.115,0,1,1,1.121,1.121m6.136,3a2.425,2.425,0,1,0,2.255,2.419A2.264,2.264,0,0,0,81.31,334.7m-.3-1.5a3.029,3.029,0,0,1,2.419,1.159v-4.788H85.09V340.9H83.817a.379.379,0,0,1-.378-.378v-.63a3.009,3.009,0,0,1-2.419,1.159,3.937,3.937,0,0,1-.013-7.85" transform="translate(-32.9 -295.367)" fill="#fff"/><path d="M71.784,67.593l4.347-7.522a.9.9,0,1,0-1.562-.907l-4.4,7.61a27.226,27.226,0,0,0-22.327,0l-4.4-7.61a.9.9,0,1,0-1.562.907l4.347,7.522A25.572,25.572,0,0,0,32.9,88.106H85.065A25.663,25.663,0,0,0,71.784,67.593Zm-24.8,13.079A2.167,2.167,0,1,1,49.154,78.5,2.167,2.167,0,0,1,46.987,80.672Zm24.016,0A2.167,2.167,0,1,1,73.17,78.5,2.167,2.167,0,0,1,71,80.672Z" transform="translate(-32.9 -58.714)" fill="#3ddc84"/></g></g></g></svg>