<svg width="80" height="80" viewBox="0 0 80 80" fill="none" xmlns="http://www.w3.org/2000/svg">
<path d="M40.1259 40C40.1259 35.6165 43.6795 32.063 48.063 32.063C52.4465 32.063 56 35.6166 56 40C56 44.3836 52.4464 47.937 48.063 47.937C43.6794 47.937 40.1259 44.3835 40.1259 40Z" fill="#00BCFF"/>
<path d="M24.2518 55.8742C24.2518 51.4907 27.8053 47.9371 32.1888 47.9371L36.4186 45.704L40.1258 47.9371V55.8742C40.1258 60.2578 36.5723 63.8112 32.1888 63.8112C27.8053 63.8112 24.2518 60.2577 24.2518 55.8742Z" fill="#00CF7F"/>
<path d="M40.1259 16.1888L35.807 23.6921L40.1259 32.0629H47.9516C52.3352 32.0629 55.8887 28.5093 55.8887 24.1258C55.8887 19.7424 52.3351 16.1888 47.9516 16.1888H40.1259Z" fill="#FF7361"/>
<path d="M24.1404 24.1258C24.1404 28.5093 27.6939 32.0629 32.0774 32.0629L36.2878 33.6891L40.1257 32.0629V16.1888H32.0773C27.6939 16.1888 24.1404 19.7424 24.1404 24.1258Z" fill="#FF4D12"/>
<path d="M24.2518 40C24.2518 44.3836 27.8053 47.937 32.1888 47.937H40.1258V32.0629H32.1888C27.8053 32.0629 24.2518 35.6165 24.2518 40Z" fill="#B659FF"/>
</svg>
