<svg xmlns="http://www.w3.org/2000/svg" width="80" height="80" viewBox="0 0 80 80"><g transform="translate(-5135 -1500)"><rect width="80" height="80" transform="translate(5135 1500)" fill="#fff" opacity="0"/><path d="M13.353-11.808H13.5l6.392-15.773h5.876L16.451-7.56l9.711,20.41H20.188L13.574-3.311h-.148L6.838,12.85H.938L10.477-7.56,1.183-27.581H7.01Zm15.022,10q0-7.192,2.3-11.566t6.478-4.374a6.008,6.008,0,0,1,3.331.944A8.056,8.056,0,0,1,43-14.085V-30.469h4.966V12.85H43.618l-.369-3.443a8.122,8.122,0,0,1-2.594,3,6.2,6.2,0,0,1-3.528,1.027,7.125,7.125,0,0,1-6.454-4q-2.3-4-2.3-10.663Zm4.991.583A19.281,19.281,0,0,0,34.57,6.3a4,4,0,0,0,3.811,2.777,4.057,4.057,0,0,0,2.766-1A7.113,7.113,0,0,0,43,5.269V-9.337a7.845,7.845,0,0,0-1.856-2.943,3.816,3.816,0,0,0-2.717-1.083q-2.606,0-3.835,3.193a23.674,23.674,0,0,0-1.229,8.358Z" transform="translate(5150.144 1548.743)" fill="#ffd9f2"/></g></svg>